<?xml version="1.0" encoding="utf-8"?>
<!-- Generator: Adobe Illustrator 19.0.0, SVG Export Plug-In . SVG Version: 6.00 Build 0)  -->
<svg version="1.1" id="圖層_1" xmlns="http://www.w3.org/2000/svg" xmlns:xlink="http://www.w3.org/1999/xlink" x="0px" y="0px"
	 viewBox="0 0 15.9 30" style="enable-background:new 0 0 15.9 30;" xml:space="preserve">
<style type="text/css">
	.st0{fill:#9A6410;}
	.st1{fill:#9A8405;}
</style>
<polygon id="XMLID_1_" class="st0" points="4.4,11.6 5.4,12.3 6.3,11.6 7.2,12.7 8.3,11.7 9.2,13 10.2,11.9 11.4,13 8.8,14.4 
	4.5,13.6 "/>
<g id="XMLID_28_">
	<polygon id="XMLID_24_" class="st0" points="0,11.1 2.1,12.3 3.2,11.8 2,13.4 	"/>
	<polygon id="XMLID_23_" class="st0" points="15.9,12.3 12.2,13.1 12.9,13.9 	"/>
	<polygon id="XMLID_7_" class="st1" points="0,11.1 1.2,29.1 13.2,30 15.9,12.3 12.9,13.9 10.9,11.6 8.7,13.9 6.7,11.4 5.1,13.2 
		4,10.7 2,13.4 	"/>
	<polygon id="XMLID_27_" class="st0" points="10.9,11.6 10.7,29.8 11.9,29.9 12.9,13.9 	"/>
</g>
</svg>
