<?xml version="1.0" encoding="utf-8"?>
<!-- Generator: Adobe Illustrator 19.0.0, SVG Export Plug-In . SVG Version: 6.00 Build 0)  -->
<svg version="1.1" id="圖層_1" xmlns="http://www.w3.org/2000/svg" xmlns:xlink="http://www.w3.org/1999/xlink" x="0px" y="0px"
	 viewBox="84.7 180.7 643.4 762.1" style="enable-background:new 84.7 180.7 643.4 762.1;" xml:space="preserve">
<style type="text/css">
	.st0{fill:#1A1311;}
	.st1{fill:#FFEB00;}
	.st2{stroke:#000000;}
</style>
<g>
	<path class="st0" d="M721.8,701.1l-288-496.5c-18.3-31.8-38.3-31.7-56.2-0.7l0,0l-287.4,499c-14,24.2,0,40.3,27.3,40.3h574.8
		C723.1,743.3,737.3,728,721.8,701.1z M476.7,689.3v-9.5V689.3z M488.5,689.3v-9.5V689.3z"/>
	<path class="st1" d="M174.9,673l216.9-376.1l212.4,376.9L174.9,673L174.9,673z"/>
	<path class="st2" d="M355.9,436.8c-15.2,0.1-30.3,1.3-33.7,3.6c-7.3,5-15,46.5-15,46.5s-10.3-9.8-13.8-5.4
		C289.9,485.8,305,498,305,498l6.5,10.4c0,0-8.9,4.7-10.4,8.8s-0.4,69.3-0.4,69.3l-14.2,54.2c0,0-4.1,13.5,10.4,16.5
		c14.6,3.1,17.3-9.6,17.3-9.6l17.3-65.4l-0.8-37.3l31.2,38.1l-27,55.8c0,0-6.7,12.6,6.9,18.5c13.5,5.8,18.5-6.2,18.5-6.2
		s33.8-66.2,33.8-71.5c0-5.1-8.5-17.3-8.5-17.3l63.8,51.5c0,0-12.2,3-15.8,13.5c-8.6,0.7-15.6,6.9-16.2,15.4
		c-11.1,0.9-20,2.6-26.6,15h169.6c0,0-2.1-14.7-21.5-15.4c-1.7-4.8-3.6-7.1-10.4-8.1c1.6-22.4-14.5-21.1-21.2-20.8
		c-15.3-25.2-39.5-18.2-48.8-5L390.4,553c0,0,32.8-53.8,33.1-64.6c0.3-10-27.4-45.8-34.3-49.2C386.2,437.5,371.1,436.6,355.9,436.8
		L355.9,436.8z M352.3,466.2l-19.6,20.7l4.3-20.1L352.3,466.2L352.3,466.2z M382.2,513l-13.1,24.5L354.4,525L382.2,513z"/>
	<path class="st2" d="M457.2,451c0,12-9.7,21.8-21.8,21.8s-21.8-9.7-21.8-21.8s9.7-21.8,21.8-21.8c11.8,0,21.4,9.4,21.7,21.2"/>
	<g>
		<path class="st1" d="M291.1,703.5v-8.8h-13.4v-7.3h13.1v-8.9h-6.7v-5.6h-11.6v5.6h-7.6v8.8h2.3v41.9c0,0.7-0.2,1.3-0.6,1.7
			c-0.3,0.5-1,0.7-1.9,0.7h-0.6l1.5,9.4h5.3c2,0,3.6-0.7,4.9-2.2c1.2-1.4,1.7-2.9,1.7-4.5v-30.4h3.4v25.9c0,1.2-0.6,1.7-1.7,1.7
			h-0.8l1.5,9.4h4.1c4.5,0,6.8-2.3,6.8-6.8v-20.9v-9.7H291.1z"/>
		<path class="st1" d="M306.8,732.1c-1.2,0-1.7-0.6-1.7-1.7v-20.6l1.4-0.5v-10l-1.4,0.5l-10,2.8v10v22c0,4.5,2.3,6.8,6.8,6.8h31V732
			h-26.1V732.1z"/>
		<path class="st1" d="M308.4,676.3l1.1-3.1h-11.1l-2.3,5.4c-0.3,1.3-1.2,2-2.6,2h-1l1.7,9.4h4c3.4,0,5.7-1.4,6.9-4.2h3.6h0.1v13v10
			v19.6h10.5v-0.1h5.2c4.5,0,6.8-2.3,6.8-6.8v-29.1l-9.4,2.8v10l1.1-0.4v13.5c0,1.2-0.6,1.7-1.7,1.7h-2v-14.1v-10v-10.1h13.6v-0.1
			v-9.4H308.4z"/>
		<polygon class="st0" points="419.6,917.4 359.6,917.4 214.1,917.4 207.4,942.8 556.6,942.8 563.3,917.4 		"/>
		<polygon class="st1" points="444.9,725.9 444.9,688.8 457.7,688.8 457.7,679.3 433.1,679.3 433.1,735.5 460.5,735.5 460.5,743.2 
			472.3,743.2 472.3,736.6 472.3,725.9 		"/>
		<path class="st1" d="M475.1,679.3v9.5h12.5v18.9c0,1.2-0.6,1.8-1.8,1.8h-13.6v-20.7v-9.5v-5.5l0.1,0v-15.4H298.4v15.1l71.7,0.2
			v244h31.5v-244l58.8,0.1v5.5v9.5V719h12.4h19.7c4.6,0,6.9-2.3,6.9-6.9v-32.8H475.1z"/>
	</g>
	<rect x="401.6" y="743.2" class="st0" width="11.7" height="178.3"/>
	<polygon class="st1" points="374.5,910.4 216.2,910.4 214.1,917.7 374.5,917.7 	"/>
</g>
</svg>
