<?xml version="1.0" encoding="utf-8"?>
<!-- Generator: Adobe Illustrator 19.0.0, SVG Export Plug-In . SVG Version: 6.00 Build 0)  -->
<svg version="1.1" id="圖層_1" xmlns="http://www.w3.org/2000/svg" xmlns:xlink="http://www.w3.org/1999/xlink" x="0px" y="0px"
	 viewBox="0 0 60 60" style="enable-background:new 0 0 60 60;" xml:space="preserve">
<style type="text/css">
	.st0{clip-path:url(#XMLID_19_);}
	.st1{fill:none;stroke:#FFFFFF;stroke-width:1.1535;stroke-miterlimit:10;}
	.st2{fill:none;stroke:#FFFFFF;stroke-width:2.3071;stroke-miterlimit:10;}
	.st3{fill:#FFFFFF;}
</style>
<g id="XMLID_17_">
	<g id="XMLID_8_">
		<defs>
			<polygon id="XMLID_1_" points="44.3,55.9 15.7,55.9 7.3,11.3 52.7,11.3 			"/>
		</defs>
		<clipPath id="XMLID_19_">
			<use xlink:href="#XMLID_1_"  style="overflow:visible;"/>
		</clipPath>
		<g id="XMLID_2_" class="st0">
			<line id="XMLID_3_" class="st1" x1="1.9" y1="27" x2="38.9" y2="71.6"/>
			<line id="XMLID_4_" class="st1" x1="5.8" y1="16.9" x2="42.8" y2="61.6"/>
			<line id="XMLID_5_" class="st1" x1="9.6" y1="6.9" x2="46.7" y2="51.5"/>
			<line id="XMLID_6_" class="st1" x1="13.5" y1="-3.1" x2="50.5" y2="41.5"/>
			<line id="XMLID_7_" class="st1" x1="17.4" y1="-13.2" x2="54.4" y2="31.5"/>
		</g>
		<g id="XMLID_9_" class="st0">
			<line id="XMLID_14_" class="st1" x1="5.8" y1="27.3" x2="42.8" y2="-17.3"/>
			<line id="XMLID_13_" class="st1" x1="9.6" y1="37.3" x2="46.7" y2="-7.3"/>
			<line id="XMLID_12_" class="st1" x1="13.5" y1="47.4" x2="50.5" y2="2.7"/>
			<line id="XMLID_11_" class="st1" x1="17.4" y1="57.4" x2="54.4" y2="12.8"/>
			<line id="XMLID_10_" class="st1" x1="21.2" y1="67.5" x2="58.3" y2="22.8"/>
		</g>
	</g>
	<path id="XMLID_15_" class="st2" d="M41.7,55.9H18.3c-1.5,0-2.9-1.1-3.2-2.6L8,15.1c-0.4-2,1.1-3.8,3.2-3.8h37.7
		c2,0,3.5,1.8,3.2,3.8l-7.2,38.2C44.5,54.8,43.2,55.9,41.7,55.9z"/>
	<path id="XMLID_16_" class="st3" d="M51.5,15.2h-43c-1.6,0-2.9-1.3-2.9-2.9v0c0-1.6,1.3-2.9,2.9-2.9h43c1.6,0,2.9,1.3,2.9,2.9v0
		C54.4,13.9,53.1,15.2,51.5,15.2z"/>
</g>
</svg>
